<svg width="0" height="0" class="hidden">
  <symbol xmlns="http://www.w3.org/2000/svg" fill="none" viewBox="0 0 24 24" id="add">
    <path stroke-linecap="round" stroke-linejoin="round" stroke-width="2" d="M12 5v14m-7-7h14"></path>
  </symbol>
  <symbol xmlns="http://www.w3.org/2000/svg" fill="none" viewBox="0 0 24 24" id="chat">
    <path stroke-linecap="round" stroke-linejoin="round" stroke-width="2" d="M7.5 12h.01M12 12h.01m4.49 0h.01M12 21a9 9 0 1 0-8.342-5.616c.081.2.122.3.14.381a.907.907 0 0 1 .024.219c0 .083-.015.173-.045.353l-.593 3.558c-.062.373-.093.56-.035.694a.5.5 0 0 0 .262.262c.135.058.321.027.694-.035l3.558-.593c.18-.03.27-.045.353-.045.081 0 .14.006.219.024.08.018.18.059.38.14A8.973 8.973 0 0 0 12 21Zm-4-9a.5.5 0 1 1-1 0 .5.5 0 0 1 1 0Zm4.5 0a.5.5 0 1 1-1 0 .5.5 0 0 1 1 0Zm4.5 0a.5.5 0 1 1-1 0 .5.5 0 0 1 1 0Z"></path>
  </symbol>
  <symbol xmlns="http://www.w3.org/2000/svg" fill="none" viewBox="0 0 24 24" id="comment">
    <path stroke-linecap="round" stroke-linejoin="round" stroke-width="2" d="M21 11.5a8.5 8.5 0 0 1-11.555 7.934c-.174-.066-.26-.1-.33-.116a.901.901 0 0 0-.186-.024 2.314 2.314 0 0 0-.303.021l-5.12.53c-.49.05-.733.075-.877-.013a.5.5 0 0 1-.234-.35c-.026-.166.09-.382.324-.814l1.636-3.027c.134-.25.202-.374.232-.494a.899.899 0 0 0 .028-.326c-.01-.123-.064-.283-.172-.604A8.5 8.5 0 1 1 21 11.5Z"></path>
  </symbol>
  <symbol xmlns="http://www.w3.org/2000/svg" fill="none" viewBox="0 0 24 24" id="heart">
    <path stroke-linecap="round" stroke-linejoin="round" stroke-width="2" d="M11.993 5.136c-2-2.338-5.333-2.966-7.838-.826s-2.858 5.719-.89 8.25c1.635 2.105 6.585 6.544 8.207 7.98.182.162.272.242.378.274a.504.504 0 0 0 .286 0c.106-.032.197-.112.378-.273 1.623-1.437 6.573-5.876 8.208-7.98 1.967-2.532 1.658-6.133-.89-8.251-2.549-2.118-5.84-1.512-7.839.826Z" clip-rule="evenodd"></path>
  </symbol>
  <symbol xmlns="http://www.w3.org/2000/svg" fill="none" viewBox="0 0 24 24" id="home">
    <path stroke-linecap="round" stroke-linejoin="round" stroke-width="2" d="M3 10.565c0-.574 0-.861.074-1.126a2 2 0 0 1 .318-.65c.163-.22.39-.397.843-.75l6.783-5.275c.351-.273.527-.41.72-.462a1 1 0 0 1 .523 0c.194.052.37.189.721.462l6.783 5.275c.453.353.68.53.843.75.145.195.252.416.318.65.074.265.074.552.074 1.126V17.8c0 1.12 0 1.68-.218 2.108a2 2 0 0 1-.874.874C19.48 21 18.92 21 17.8 21H6.2c-1.12 0-1.68 0-2.108-.218a2 2 0 0 1-.874-.874C3 19.48 3 18.92 3 17.8v-7.235Z"></path>
  </symbol>
  <symbol xmlns="http://www.w3.org/2000/svg" fill="none" viewBox="0 0 24 24" id="search">
    <path stroke-linecap="round" stroke-linejoin="round" stroke-width="2" d="m21 21-4.35-4.35M11 6a5 5 0 0 1 5 5m3 0a8 8 0 1 1-16 0 8 8 0 0 1 16 0Z"></path>
  </symbol>
  <symbol xmlns="http://www.w3.org/2000/svg" fill="none" viewBox="0 0 24 24" id="user">
    <path stroke-linecap="round" stroke-linejoin="round" stroke-width="2" d="M3 20c2.336-2.477 5.507-4 9-4 3.493 0 6.664 1.523 9 4M16.5 7.5a4.5 4.5 0 1 1-9 0 4.5 4.5 0 0 1 9 0Z"></path>
  </symbol>
</svg>